<?xml version="1.0" encoding="UTF-8" standalone="no"?>
<!DOCTYPE svg PUBLIC "-//W3C//DTD SVG 1.1//EN" "http://www.w3.org/Graphics/SVG/1.1/DTD/svg11.dtd">
<svg width="100%" height="100%" viewBox="0 0 43 43" version="1.1" xmlns="http://www.w3.org/2000/svg" xmlns:xlink="http://www.w3.org/1999/xlink" xml:space="preserve" xmlns:serif="http://www.serif.com/" style="fill-rule:evenodd;clip-rule:evenodd;stroke-linejoin:round;stroke-miterlimit:2;">
    <g transform="matrix(1,0,0,1,-66.9015,-0.437813)">
        <g id="Artboard2" transform="matrix(1.00006,0,0,1.00002,118.474,0.509344)">
            <rect x="-51.57" y="-0.072" width="42.116" height="42.116" style="fill:none;"/>
            <g transform="matrix(0.570077,0,0,0.570099,-52.544,-306.045)">
                <g transform="matrix(1.75405,0,0,1.75405,-650.387,-184.39)">
                    <path d="M413.885,421.415C413.885,415.723 409.263,411.102 403.571,411.102C403.571,411.102 382.081,411.102 382.081,411.102C376.389,411.102 371.768,415.723 371.768,421.415C371.768,421.415 371.768,442.905 371.768,442.905C371.768,448.597 376.389,453.218 382.081,453.218L403.571,453.218C409.263,453.218 413.885,448.597 413.885,442.905L413.885,421.415Z" style="fill:rgb(27,27,27);"/>
                </g>
                <g transform="matrix(0.796634,0,-5.55112e-17,0.836892,-273.439,50.6344)">
                    <ellipse cx="382.029" cy="632.834" rx="16.147" ry="15.357" style="fill:rgb(42,170,215);"/>
                </g>
                <g transform="matrix(0.796634,0,-5.55112e-17,0.836892,-256.769,50.7265)">
                    <ellipse cx="382.029" cy="632.834" rx="16.147" ry="15.357" style="fill:rgb(255,0,89);"/>
                </g>
                <g transform="matrix(1,0,0,1,-454.827,-48.0755)">
                    <path d="M494.114,618.584C496.853,620.942 498.589,624.432 498.589,628.324C498.589,632.267 496.807,635.798 494.006,638.155C491.267,635.798 489.532,632.308 489.532,628.416C489.532,624.473 491.313,620.942 494.114,618.584Z" style="fill:rgb(195,132,203);"/>
                </g>
                <g transform="matrix(0.796634,0,-5.55112e-17,0.836892,-265.795,37.0337)">
                    <ellipse cx="382.029" cy="632.834" rx="16.147" ry="15.357" style="fill:white;"/>
                </g>
                <g transform="matrix(1,0,0,1,-454.827,-48.0755)">
                    <path d="M489.608,627.016C490.307,620.58 495.77,615.564 502.396,615.564C503.704,615.564 504.967,615.76 506.157,616.123C505.458,622.559 499.995,627.575 493.369,627.575C492.061,627.575 490.798,627.379 489.608,627.016Z" style="fill:rgb(238,133,170);"/>
                </g>
                <g transform="matrix(1,0,0,1,-454.827,-48.0755)">
                    <path d="M480.631,616.521C482.194,615.846 483.916,615.472 485.725,615.472C492.214,615.472 497.587,620.283 498.464,626.526C496.901,627.201 495.178,627.575 493.369,627.575C486.88,627.575 481.507,622.764 480.631,616.521Z" style="fill:rgb(159,230,255);"/>
                </g>
                <g transform="matrix(1,0,0,1,-454.827,-48.0755)">
                    <path d="M494.114,618.584C496.424,620.572 498.02,623.366 498.464,626.526C496.901,627.201 495.178,627.575 493.369,627.575C492.061,627.575 490.798,627.379 489.608,627.016C489.974,623.643 491.649,620.66 494.114,618.584Z" style="fill:rgb(27,27,27);"/>
                </g>
            </g>
        </g>
        <g id="ArtBoard1">
        </g>
    </g>
</svg>
