<?xml version="1.0" encoding="UTF-8" standalone="no"?>
<!DOCTYPE svg PUBLIC "-//W3C//DTD SVG 1.1//EN" "http://www.w3.org/Graphics/SVG/1.1/DTD/svg11.dtd">
<svg width="100%" height="100%" viewBox="0 0 43 43" version="1.1" xmlns="http://www.w3.org/2000/svg" xmlns:xlink="http://www.w3.org/1999/xlink" xml:space="preserve" xmlns:serif="http://www.serif.com/" style="fill-rule:evenodd;clip-rule:evenodd;stroke-linecap:round;stroke-linejoin:round;stroke-miterlimit:1.5;">
    <g transform="matrix(1,0,0,1,-66.3029,-355.733)">
        <g id="ArtBoard1">
        </g>
        <g id="Artboard2" transform="matrix(1.00006,0,0,1.00002,117.875,355.805)">
            <rect x="-51.57" y="-0.072" width="42.116" height="42.116" style="fill:none;"/>
            <clipPath id="_clip1">
                <rect x="-51.57" y="-0.072" width="42.116" height="42.116"/>
            </clipPath>
            <g clip-path="url(#_clip1)">
                <g transform="matrix(0.570077,0,0,0.5701,-264.973,-395.642)">
                    <path d="M447.393,712.006C447.393,702.482 439.66,694.749 430.136,694.749L392.442,694.749C382.917,694.749 375.185,702.482 375.185,712.006L375.185,749.7C375.185,759.224 382.917,766.957 392.442,766.957L430.136,766.957C439.66,766.957 447.393,759.224 447.393,749.7L447.393,712.006Z" style="fill:white;stroke:white;stroke-width:1.67px;"/>
                </g>
                <g transform="matrix(0.387814,0,0,0.387829,-45.822,-201.728)">
                    <g transform="matrix(1.33526,0,-9.3044e-17,1.40274,-484.847,-302.887)">
                        <ellipse cx="382.029" cy="632.834" rx="16.147" ry="15.357" style="fill:rgb(42,170,215);"/>
                    </g>
                    <g transform="matrix(1.33526,0,-9.3044e-17,1.40274,-456.905,-302.733)">
                        <ellipse cx="382.029" cy="632.834" rx="16.147" ry="15.357" style="fill:rgb(255,0,89);"/>
                    </g>
                    <g transform="matrix(1.67613,0,0,1.67613,-788.877,-468.338)">
                        <path d="M494.114,618.584C496.853,620.942 498.589,624.432 498.589,628.324C498.589,632.267 496.807,635.798 494.006,638.155C491.267,635.798 489.532,632.308 489.532,628.416C489.532,624.473 491.313,620.942 494.114,618.584Z" style="fill:rgb(195,132,203);"/>
                    </g>
                    <g transform="matrix(1.33526,0,-9.3044e-17,1.40274,-472.034,-325.684)">
                        <ellipse cx="382.029" cy="632.834" rx="16.147" ry="15.357" style="fill:rgb(27,27,27);"/>
                    </g>
                    <g transform="matrix(1.67613,0,0,1.67613,-788.877,-468.338)">
                        <path d="M489.608,627.016C490.307,620.58 495.77,615.564 502.396,615.564C503.704,615.564 504.967,615.76 506.157,616.123C505.458,622.559 499.995,627.575 493.369,627.575C492.061,627.575 490.798,627.379 489.608,627.016Z" style="fill:rgb(157,0,55);"/>
                    </g>
                    <g transform="matrix(1.67613,0,0,1.67613,-788.877,-468.338)">
                        <path d="M480.631,616.521C482.194,615.846 483.916,615.472 485.725,615.472C492.214,615.472 497.587,620.283 498.464,626.526C496.901,627.201 495.178,627.575 493.369,627.575C486.88,627.575 481.507,622.764 480.631,616.521Z" style="fill:rgb(28,104,131);"/>
                    </g>
                    <g transform="matrix(1.67613,0,0,1.67613,-788.877,-468.338)">
                        <path d="M494.114,618.584C496.424,620.572 498.02,623.366 498.464,626.526C496.901,627.201 495.178,627.575 493.369,627.575C492.061,627.575 490.798,627.379 489.608,627.016C489.974,623.643 491.649,620.66 494.114,618.584Z" style="fill:white;"/>
                    </g>
                </g>
            </g>
        </g>
    </g>
</svg>
